<svg id="svg" version="1.1" xmlns="http://www.w3.org/2000/svg" xmlns:xlink="http://www.w3.org/1999/xlink" width="400" height="400" viewBox="0, 0, 400,400"><g id="svgg"><path id="path0" d="M308.591 7.000 C 306.561 10.850,301.888 27.628,298.208 44.285 L 291.515 74.570 221.799 144.201 L 152.083 213.832 128.925 190.916 C 99.188 161.489,100.630 161.175,55.109 207.000 C 8.370 254.051,0.211 269.662,0.088 312.274 C -0.113 381.451,13.000 396.467,76.000 399.200 C 135.014 401.760,142.542 398.519,193.000 348.817 C 243.438 299.135,242.025 304.321,213.084 275.074 L 190.167 251.916 261.338 180.663 L 332.508 109.410 361.254 102.114 C 412.078 89.213,412.451 82.668,365.083 35.079 C 329.355 -0.815,316.167 -7.370,308.591 7.000 M372.958 76.210 C 371.331 77.599,358.169 81.833,343.708 85.620 C 317.428 92.502,317.385 92.537,241.708 168.522 C 162.633 247.919,136.000 271.941,136.000 263.865 C 136.000 261.222,175.401 219.220,223.559 170.529 C 294.383 98.920,311.647 79.324,313.888 68.000 C 315.411 60.300,318.449 46.990,320.638 38.422 L 324.619 22.845 350.267 48.265 C 364.374 62.246,374.584 74.821,372.958 76.210 M325.700 57.773 C 321.568 74.236,332.943 81.605,347.895 72.149 C 352.866 69.006,352.286 66.820,344.198 58.211 C 332.244 45.486,328.804 45.405,325.700 57.773 M118.618 212.606 L 135.539 229.213 118.387 253.606 C 82.230 305.029,95.455 320.458,146.017 285.842 L 172.540 267.684 185.700 278.842 C 211.063 300.346,211.102 300.127,175.339 336.179 C 137.205 374.622,126.168 380.077,87.128 379.774 C 31.762 379.345,20.914 368.873,20.304 315.260 C 19.882 278.196,23.627 270.828,63.124 231.000 C 103.836 189.947,97.627 192.005,118.618 212.606 " stroke="none" fill="#000000" fill-rule="evenodd"></path></g></svg>